<?xml version="1.0" encoding="UTF-8"?>
<svg role="img" viewBox="0 2.346 24 19.308" xmlns="http://www.w3.org/2000/svg">
 <path d="m0 21.653s3.154-0.355 5.612-2.384c2.339-1.93 3.185-3.592 3.77-5.476 0.584-1.885 0.671-6.419 0.671-7.764v-3.683h-1.455v1.365c-0.024 2.041-0.2 5.918-1.135 8.444-2.26 6.087-7.463 6.62-7.463 6.62zm24 0s-3.154-0.355-5.61-2.384c-2.342-1.93-3.187-3.592-3.772-5.476-0.583-1.885-0.671-6.419-0.671-7.764v-3.683h1.453l1e-3 1.365c0.024 2.041 0.202 5.918 1.138 8.444 2.258 6.087 7.46 6.62 7.46 6.62zm-13.341-19.305h2.685v19.306h-2.684z"/>
</svg>
